<svg width="63" height="55" viewBox="0 0 63 55" fill="none" xmlns="http://www.w3.org/2000/svg">
<g id="Dislike">
<g id="Vector 17">
<path d="M28.3697 54.9009C30.5093 55.1416 32.1377 53.2118 32.1422 51.0587C32.1647 40.2706 34.7092 34.9037 43.4949 29.1761L43.4949 3.21794L39.2608 0.59837C38.6285 0.207207 37.8997 0 37.1563 0L12.1963 0C11.9681 0 11.7384 0.0184746 11.5145 0.0624542C7.7033 0.811043 6.66957 2.63887 6.03214 6.16702C5.85223 7.16278 5.32131 8.05174 4.6105 8.77192C3.33327 10.066 2.81436 11.2924 2.87282 12.933C2.93604 14.7073 2.24542 16.4012 1.03946 17.7042C-0.195705 19.0387 -0.295185 20.3903 0.555927 22.2592C1.14021 23.5422 1.24147 25.0067 0.745316 26.3263C-2.2136 34.196 4.11579 35.3969 17.4262 35.2665C19.8603 35.2426 21.7672 37.3499 21.5589 39.7752C20.7463 49.2386 21.7735 54.1589 28.3697 54.9009Z" fill="#FF0000"/>
<path d="M43.4949 29.1761C43.4949 30.2424 44.3594 31.1068 45.4257 31.1068L59 31.1068C61.2091 31.1068 63 29.316 63 27.1068L63 4.64362C63 2.43448 61.2091 0.64362 59 0.64362H46.0692C44.6475 0.64362 43.4949 1.79618 43.4949 3.21794L43.4949 29.1761Z" fill="#FF0000"/>
</g>
</g>
</svg>
