<svg width="152" height="126" viewBox="0 0 152 126" fill="none" xmlns="http://www.w3.org/2000/svg">
<path d="M71.9312 5.46503C73.555 2.028 78.445 2.02799 80.0688 5.46503L95.9859 39.1568C97.4804 42.3202 100.593 44.4062 104.087 44.5862L144.69 46.6784C148.983 46.8996 150.552 52.4384 147.012 54.8777L117.704 75.0759C114.285 77.4321 112.792 81.7357 114.018 85.7028L123.855 117.537C125.04 121.373 120.989 124.723 117.444 122.839L80.4579 103.185C77.6705 101.704 74.3295 101.704 71.5421 103.185L34.5563 122.839C31.0108 124.723 26.9599 121.373 28.1453 117.537L37.9819 85.7028C39.2077 81.7357 37.7151 77.4321 34.2962 75.0759L4.98789 54.8777C1.44838 52.4384 3.01694 46.8996 7.30988 46.6784L47.9133 44.5862C51.4074 44.4062 54.5196 42.3202 56.0141 39.1568L71.9312 5.46503Z" stroke="black" stroke-width="5"/>
</svg>
