<svg width="1919" height="2140" viewBox="0 0 1919 2140" fill="none" xmlns="http://www.w3.org/2000/svg">
<path d="M1797.44 1479.71L1497.28 1306.87L1419.74 1262.22L1342.27 1217.61L1255.15 1266.91L1621.96 1479.71L1533.24 1531.52L1426.71 1593.74V1691.63L1797.44 1479.71Z" fill="#87CEEB"/>
<path d="M1621.96 1479.71L1255.15 1266.91L1255.15 1361.97V1696.23L1341.02 1740.52V1644.93V1416.93L1426.71 1468.54L1533.24 1531.52L1621.96 1479.71Z" fill="#007BFF"/>
<path d="M1341.02 1841.83L1621.96 1680.5L1709.7 1630.11L1797.44 1579.73V1479.71L1426.71 1691.63V1593.74L1426.71 1468.54L1341.02 1416.93V1644.93V1740.52L709.717 2128.06L849.943 2128.06L1341.02 1841.83Z" fill="#294F78"/>
<path d="M532.278 2128.06H686.201H709.717L1341.02 1740.52L1255.15 1696.23L893.716 1912.14L786.41 1976.25L686.201 2036.11L532.278 2128.06Z" fill="#87CEEB"/>
<path d="M1797.44 2128.06L1797.44 1579.73L1709.7 1630.11V2128.06H1797.44Z" fill="#294F78"/>
<path d="M1621.96 1680.5V2128.06H1709.7V1630.11L1621.96 1680.5Z" fill="#007BFF"/>
<path d="M1919 1000.57V908.976L1761.32 993.354V1083.2L1919 1000.57Z" fill="#87CEEB"/>
<path d="M1342.27 1217.61L1419.74 1262.22L1669.37 1131.39L1578.32 1091.28L1342.27 1217.61Z" fill="#87CEEB"/>
<path d="M1919 1083.2V1000.57L1761.32 1083.2V993.354L1761.32 583.421L1919 505.268V391.772L1761.32 472.264L1669.37 519.206L1669.37 1131.39L1419.74 1262.22L1497.28 1306.87L1919 1083.2Z" fill="#294F78"/>
<path d="M1029.29 1048.15L1029.29 704.81V575.909V291.716L936.227 242.273L936.227 503.038V634.787V765.022L936.227 997.767L1029.29 1048.15Z" fill="#007BFF"/>
<path d="M936.227 1097.04L1029.29 1146.6V1048.15L936.227 997.767V1097.04Z" fill="#007BFF"/>
<path fill-rule="evenodd" clip-rule="evenodd" d="M1255.15 1266.91L1342.27 1217.61L1119.58 1097.04L1029.29 1146.6L1255.15 1266.91ZM-0.999893 490.334L512.545 768.377L627.077 830.387L740.386 891.735L936.227 997.767V1097.04L345.681 782.505L236.724 724.473L-0.999893 597.857L-0.999893 490.334Z" fill="#87CEEB"/>
<path d="M1029.29 1146.6L1119.58 1097.04L1029.29 1048.15V1146.6Z" fill="#294F78"/>
<path d="M1669.37 519.206L1761.32 472.264L1919 391.772V300.178L1669.37 429.106L1549.52 368.206L1443.06 314.111L1329.8 256.556L1079.06 129.146L909.808 129.146L1578.32 472.45L1669.37 519.206Z" fill="#87CEEB"/>
<path d="M1669.37 1131.39L1669.37 519.206L1578.32 472.45L909.808 129.146L723.304 129.146L936.227 242.273L1029.29 291.716L1119.58 339.691L1161.5 361.96L1273.44 421.434L1379.86 477.979L1578.32 583.421L1578.32 1091.28L1669.37 1131.39Z" fill="#007BFF"/>
<path d="M893.716 1912.14L345.681 1660.83L236.724 1610.86L117.862 1556.35L-0.999893 1501.84V1610.86L786.41 1976.25L893.716 1912.14Z" fill="#87CEEB"/>
<path d="M786.41 1976.25L-0.999893 1610.86L-0.999893 1722.37L686.201 2036.11L786.41 1976.25Z" fill="#007BFF"/>
<path d="M740.386 1306.87L236.724 1610.86L345.681 1660.83L740.386 1444.6V1306.87Z" fill="#294F78"/>
<path d="M236.724 1610.86L740.386 1306.87L622.325 1262.22L117.862 1556.35L236.724 1610.86Z" fill="#87CEEB"/>
<path d="M622.325 1262.22L740.386 1306.87V1083.51L627.077 1022.22L622.325 1262.22Z" fill="#007BFF"/>
<path d="M740.386 1306.87V1444.6L849.943 1381.38V1142.78L740.386 1083.51V1306.87Z" fill="#294F78"/>
<path d="M266.308 827.074L-0.999893 977.173V1048.15L345.681 870.009L266.308 827.074Z" fill="#294F78"/>
<path d="M345.681 870.009V782.505L266.308 827.074L345.681 870.009Z" fill="#294F78"/>
<path fill-rule="evenodd" clip-rule="evenodd" d="M1255.15 1266.91L1029.29 1146.6L936.227 1097.04L345.681 782.505V870.009L627.077 1022.22L740.386 1083.51L849.943 1142.78L1255.15 1361.97L1255.15 1266.91ZM157.795 768.377L236.724 724.473L-0.999893 597.857V682.481L157.795 768.377Z" fill="#007BFF"/>
<path d="M345.681 782.505L236.724 724.473L157.795 768.377L266.308 827.074L345.681 782.505Z" fill="#87CEEB"/>
<path d="M-0.999893 856.708V977.173L266.308 827.074L157.795 768.377L-0.999893 856.708Z" fill="#87CEEB"/>
<path d="M740.386 891.735L936.227 765.022V634.787L627.077 830.387L740.386 891.735Z" fill="#294F78"/>
<path fill-rule="evenodd" clip-rule="evenodd" d="M1029.29 291.716L1119.58 339.691V388.208V518.778L1029.29 575.909V291.716ZM1029.29 704.81L1029.29 1048.15L1119.58 1097.04L1119.58 646.386L1029.29 704.81Z" fill="#294F78"/>
<path d="M1119.58 518.778L1029.29 575.909V704.81L1119.58 646.386V518.778Z" fill="#294F78"/>
<path d="M1379.86 477.979L1273.44 421.434L1119.58 518.778V646.386L1379.86 477.979Z" fill="#294F78"/>
<path d="M1919 129.146L1735.4 129.146L1443.06 314.111L1549.52 368.206L1919 129.146Z" fill="#294F78"/>
<path d="M1735.4 129.146L1533.24 129.146L1329.8 256.556L1443.06 314.111L1735.4 129.146Z" fill="#87CEEB"/>
<path d="M512.545 768.377L627.077 830.387L936.227 634.787V503.038L512.545 768.377Z" fill="#87CEEB"/>
<path d="M1119.58 518.778L1273.44 421.434L1161.5 361.96L1119.58 388.208V518.778Z" fill="#87CEEB"/>
<path d="M-0.999512 -1H1919V2142H-0.999512V-1Z" fill="white" fill-opacity="0.6"/>
<path d="M-0.999512 -1H1919V2142H-0.999512V-1Z" stroke="black"/>
</svg>
