<svg width="1920" height="1080" viewBox="0 0 1920 1080" fill="none" xmlns="http://www.w3.org/2000/svg">
<path d="M0 970L1086.5 638.5L971.5 619.79L0 901V970Z" fill="#87CEEB"/>
<path d="M1086.5 638.5V1H971.5V156V211.5V310.395V619.79L1086.5 638.5Z" fill="#007BFF"/>
<path d="M0 1081L249 1006.05L339 978.958L433.5 950.513L1191 722.5V521V421V359.5V1H1086.5V638.5L0 970V1081Z" fill="#294F78"/>
<path d="M971.5 310.395V211.5L339 94.5V1H249V156L520 213.911L623 236.5L709.5 254.407L971.5 310.395Z" fill="#007BFF"/>
<path d="M971.5 211.5V156L433.5 66L339 94.5L971.5 211.5Z" fill="#87CEEB"/>
<path d="M433.5 66V1H339V94.5L433.5 66Z" fill="#294F78"/>
<path d="M339 978.958V1081H433.5V950.513L339 978.958Z" fill="#294F78"/>
<path d="M339 1081V978.958L249 1006.05V1081H339Z" fill="#007BFF"/>
<path d="M1086.5 1081H1191V963.5L1920 735.487V638.5L1726.48 697.357L1626 727.917L1086.5 892V1081Z" fill="#294F78"/>
<path d="M971.5 1081H1086.5V892L971.5 866.5V1081Z" fill="#007BFF"/>
<path d="M1191 421L1726.48 281.3L1626 247L1191 359.5V421Z" fill="#87CEEB"/>
<path d="M1513.5 437.595L1626 408.5V662.249L1726.48 630.892V281.3L1191 421V521L1513.5 437.595Z" fill="#294F78"/>
<path d="M1626 408.5L1513.5 437.595V697.357L1626 662.249V408.5Z" fill="#007BFF"/>
<path d="M1626 662.249L1513.5 697.357L1626 727.917V662.249Z" fill="#007BFF"/>
<path fill-rule="evenodd" clip-rule="evenodd" d="M1086.5 892L1626 727.917L1513.5 697.357L971.5 866.5L1086.5 892ZM1726.48 630.892V697.357L1920 638.5V570.5L1726.48 630.892Z" fill="#87CEEB"/>
<path d="M1626 727.917L1726.48 697.357V630.892L1626 662.249V727.917Z" fill="#294F78"/>
<path d="M623 236.5V359.5L0 521V605L709.5 421.5V254.407L623 236.5Z" fill="#294F78"/>
<path d="M623 359.5V236.5L520 213.911V345.5L623 359.5Z" fill="#007BFF"/>
<path d="M0 521L623 359.5L520 345.5L0 471.5V521Z" fill="#87CEEB"/>
<rect y="-1" width="1920" height="1083" stroke="black"/>
<rect y="-1" width="1920" height="1083" fill="white" fill-opacity="0.35"/>
<rect y="-1" width="1920" height="1083" stroke="black"/>
</svg>
