<svg width="1920" height="1080" viewBox="0 0 1920 1080" fill="none" xmlns="http://www.w3.org/2000/svg">
<path d="M246.5 373L1296 199.5L1204.5 156.5L153 330.5L246.5 373Z" fill="#87CEEB"/>
<path d="M246.5 1080V373L153 330.5V439V511.5V609V1047.5V1080H246.5Z" fill="#007BFF"/>
<path d="M246.5 373V1080H348V600.049V512.894V446L375 440.5L653.5 392L738.5 377.527L849.5 358.064L1406.75 262.97V0H1296V199.5L246.5 373Z" fill="#294F78"/>
<path d="M1296 199.5V0H1204.5V156.5L1296 199.5Z" fill="#007BFF"/>
<path d="M738.5 859.5V377.527L653.5 392V612.5V631.437V707V801.5L738.5 859.5Z" fill="#007BFF"/>
<path d="M1620 1080V939.5V845.5V696.107L1517.5 715.106V1080H1620Z" fill="#007BFF"/>
<path d="M1296 467.5V583.098L1406.75 562.581L1717.5 505.014V0H1620V410L1296 467.5Z" fill="#294F78"/>
<path d="M1296 1080H1406.75V735.635L1296 756.163V1080Z" fill="#294F78"/>
<path d="M1620 410V0H1517.5V362.785L1620 410Z" fill="#007BFF"/>
<path d="M1296 467.5L1620 410L1517.5 362.785L1204.5 410L1296 467.5Z" fill="#87CEEB"/>
<path d="M1204.5 410V600.049L1296 583.098V467.5L1204.5 410Z" fill="#007BFF"/>
<path fill-rule="evenodd" clip-rule="evenodd" d="M1296 652.937L1406.75 632.804L1920 539.5V640.5L1717.5 678.035L1620 696.107L1517.5 715.106L1406.75 735.635L1296 756.163V652.937ZM1204.5 669.571L849.5 734.106V665.814V358.064L738.5 377.527V859.5L1204.5 773.123V669.571Z" fill="#294F78"/>
<path d="M1204.5 773.123L1296 756.163V652.937L1204.5 669.571V773.123Z" fill="#007BFF"/>
<path d="M1296 583.098L1204.5 600.049V669.571L1296 652.937V583.098Z" fill="#007BFF"/>
<path d="M1204.5 1080H1296V756.163L1204.5 773.123V1080Z" fill="#007BFF"/>
<path fill-rule="evenodd" clip-rule="evenodd" d="M849.5 734.106L1204.5 669.571V600.049L849.5 665.814V734.106ZM1406.75 562.581V632.804L1920 539.5V467.5L1717.5 505.014L1406.75 562.581Z" fill="#87CEEB"/>
<path d="M1406.75 562.581L1296 583.098V652.937L1406.75 632.804V562.581Z" fill="#294F78"/>
<path d="M0 0V51.5L246.5 215.5V0H153V51.5L75 0H0Z" fill="#007BFF"/>
<path d="M348 0H246.5V215.5L348 197V0Z" fill="#294F78"/>
<path d="M153 51.5V0H75L153 51.5Z" fill="#87CEEB"/>
<path d="M0 1080H75L0 1032V1080Z" fill="#007BFF"/>
<path d="M653.5 801.5V707L348 512.894V600.049L653.5 801.5Z" fill="#007BFF"/>
<path d="M653.5 707V631.437V612.5L375 440.5L348 446V512.894L653.5 707Z" fill="#87CEEB"/>
<path d="M0 539.5L153 511.5V439L0 467.5V539.5Z" fill="#87CEEB"/>
<path d="M0 640.5L153 609V511.5L0 539.5V640.5Z" fill="#294F78"/>
<path d="M1920 51.5V0H1844L1920 51.5Z" fill="#007BFF"/>
<path d="M1717.5 904.5L1920 1032V954L1717.5 822.5V904.5Z" fill="#87CEEB"/>
<path d="M1920 1080V1032L1717.5 904.5V996.5L1844 1080H1920Z" fill="#007BFF"/>
<path d="M75 1080H153V1047.5L0 954V990V1032L75 1080Z" fill="#87CEEB"/>
<path d="M1717.5 904.5V822.5L1620 845.5L1717.5 904.5Z" fill="#87CEEB"/>
<path fill-rule="evenodd" clip-rule="evenodd" d="M1620 696.107V845.5L1717.5 822.5V678.035L1620 696.107ZM1717.5 996.5L1620 939.5V1080H1717.5V996.5Z" fill="#294F78"/>
<path d="M1717.5 996.5V904.5L1620 845.5V939.5L1717.5 996.5Z" fill="#007BFF"/>
<rect y="-1" width="1920" height="1083" stroke="black"/>
<rect y="-1" width="1920" height="1083" fill="white" fill-opacity="0.35"/>
<rect y="-1" width="1920" height="1083" stroke="black"/>
</svg>
