<svg width="568" height="559" viewBox="0 0 568 559" fill="none" xmlns="http://www.w3.org/2000/svg">
<path d="M214.771 290.757L224.222 248.08C225.075 244.226 229.848 242.834 232.639 245.625L234.036 247.023C235.989 248.975 239.155 248.975 241.108 247.023L280.702 207.428C282.654 205.476 285.82 205.476 287.773 207.428L305.648 225.304C307.601 227.257 307.601 230.422 305.648 232.375L266.054 271.969C264.101 273.922 264.101 277.088 266.054 279.04L266.814 279.801C269.646 282.632 268.166 287.478 264.235 288.244L220.609 296.745C217.074 297.434 213.992 294.273 214.771 290.757Z" stroke="black" stroke-width="13"/>
<path d="M261.449 346.531L244.23 329.313C242.277 327.36 242.277 324.194 244.23 322.241L279.626 286.845C281.579 284.892 281.579 281.726 279.626 279.774L277.252 277.399C274.437 274.584 275.881 269.768 279.781 268.966L325.309 259.604C328.879 258.87 332.009 262.079 331.187 265.63L320.865 310.198C319.979 314.022 315.234 315.381 312.458 312.605L310.988 311.135C309.035 309.182 305.869 309.182 303.917 311.135L268.52 346.531C266.567 348.484 263.401 348.484 261.449 346.531Z" stroke="black" stroke-width="13"/>
<path d="M20.5941 318.045L181.184 272.334C183.791 271.592 186.515 273.063 187.324 275.65L246.761 465.673C247.588 468.316 246.108 471.127 243.462 471.943L242.679 472.185M20.5941 318.045L8.16694 337.519C7.4225 338.686 7.17487 340.031 7.51822 341.371C11.6881 357.652 40.0938 468.562 58.8007 541.602M20.5941 318.045L74.2551 524.103M58.8007 541.602C63.1952 531.555 64.3061 530.297 74.2551 524.103M58.8007 541.602C64.8835 550.806 65.6325 551.353 77.1169 551.956C77.6812 551.985 78.2524 551.918 78.7943 551.758L242.679 503.307M74.2551 524.103L242.679 472.185M242.679 472.185V492.528M242.679 503.307L243.391 503.077C247.159 501.863 248.088 496.959 245.025 494.45L242.679 492.528M242.679 503.307V492.528M184.251 355.402L69.9246 386.719C67.2592 387.449 64.507 385.878 63.7798 383.212L54.972 350.918C54.2426 348.244 55.828 345.487 58.5061 344.772L172.427 314.358C175.049 313.658 177.751 315.177 178.515 317.78L187.727 349.172C188.515 351.856 186.948 354.663 184.251 355.402Z" stroke="black" stroke-width="13"/>
<path d="M547.529 53.0446L386.94 7.33387C384.332 6.59165 381.608 8.06273 380.799 10.6502L321.362 200.673C320.535 203.316 322.015 206.127 324.661 206.943L325.444 207.185M547.529 53.0446L559.956 72.5192C560.701 73.6858 560.948 75.0306 560.605 76.3712C556.435 92.6524 528.029 203.562 509.322 276.602M547.529 53.0446L493.868 259.103M509.322 276.602C504.928 266.555 503.817 265.297 493.868 259.103M509.322 276.602C503.24 285.806 502.491 286.353 491.006 286.956C490.442 286.985 489.871 286.918 489.329 286.758L325.444 238.307M493.868 259.103L325.444 207.185M325.444 207.185V227.528M325.444 238.307L324.732 238.077C320.964 236.863 320.035 231.959 323.098 229.45L325.444 227.528M325.444 238.307V227.528M383.872 90.4023L498.198 121.719C500.864 122.449 503.616 120.878 504.343 118.212L513.151 85.9183C513.88 83.2441 512.295 80.4869 509.617 79.7719L395.696 49.3576C393.074 48.6577 390.372 50.1767 389.608 52.7804L380.396 84.172C379.608 86.8556 381.175 89.6634 383.872 90.4023Z" stroke="black" stroke-width="13"/>
</svg>
