<svg xmlns="http://www.w3.org/2000/svg" width="441" height="290" viewBox="0 0 441 290" fill="none">
  <path d="M386 12.593C386 10.0818 384.11 7.95301 381.616 7.65385C309.063 -1.05123 273.249 14.4799 219.5 72.2032V267.703C221.383 271.058 222.873 272.609 225.689 273.353C226.84 273.657 228.067 273.339 229.071 272.699C282.81 238.454 316.778 228.794 380.4 235.573C383.377 235.891 386 233.572 386 230.578V12.593Z" fill="#87CEEB"/>
  <path d="M219.5 72.2032C170.007 13.385 122.323 -2.3362 56.7053 7.53957C54.2853 7.90378 52.5 9.99857 52.5 12.4458V230.87C52.5 233.758 54.9495 236.044 57.8324 235.867C119.854 232.053 155.674 233.869 210.395 272.561C211.417 273.284 212.703 273.671 213.914 273.355C216.598 272.657 217.978 271.147 219.5 267.703V72.2032Z" fill="#87CEEB"/>
  <path d="M164.965 280.543C170.468 281.134 172.666 274.005 167.621 271.728C126.109 252.983 93.3947 250.463 40.2007 257.432C37.1902 257.826 34.5 255.493 34.5 252.457V29.8654C34.5 27.2395 32.4675 25.049 29.8449 24.9188C20.4862 24.4542 14.4773 24.9679 7.75474 27.8923C6.03755 28.6393 5 30.3802 5 32.2529V280.034C5 283.212 7.93015 285.581 11.0444 284.946C52.8118 276.429 90.6427 272.547 164.965 280.543Z" fill="#294F78"/>
  <path d="M273.89 278.652C268.427 279.574 265.702 272.592 270.601 270.003C309.854 249.264 343.468 246.194 402.021 257.062C405.115 257.637 408 255.276 408 252.129V29.0773C408 26.7968 409.539 24.7757 411.777 24.3351C419.752 22.7647 425.343 23.5963 433.439 27.808C435.036 28.6387 436 30.3155 436 32.1155V274.982C436 278.009 433.303 280.338 430.301 279.944C360.179 270.732 320.927 270.718 273.89 278.652Z" fill="#294F78"/>
  <path d="M219.5 72.2032C170.007 13.385 122.323 -2.3362 56.7053 7.53957C54.2853 7.90378 52.5 9.99857 52.5 12.4458V230.87C52.5 233.758 54.9495 236.044 57.8324 235.866C119.854 232.053 155.674 233.869 210.395 272.561C211.417 273.284 212.703 273.671 213.914 273.356C216.598 272.657 217.978 271.147 219.5 267.703M219.5 72.2032C273.249 14.4799 309.063 -1.05123 381.616 7.65385C384.11 7.95301 386 10.0818 386 12.593V230.578C386 233.572 383.377 235.891 380.4 235.573C316.778 228.794 282.81 238.454 229.071 272.699C228.067 273.339 226.84 273.657 225.689 273.353C222.873 272.609 221.383 271.058 219.5 267.703M219.5 72.2032V267.703M436 274.982V32.1155C436 30.3155 435.036 28.6387 433.439 27.808C425.343 23.5963 419.752 22.7648 411.777 24.3351C409.539 24.7757 408 26.7968 408 29.0773V252.129C408 255.276 405.115 257.637 402.021 257.062C343.468 246.194 309.854 249.264 270.601 270.003C265.702 272.592 268.427 279.574 273.89 278.652C320.927 270.718 360.179 270.732 430.301 279.944C433.303 280.338 436 278.01 436 274.982ZM5 280.034V32.2529C5 30.3802 6.03755 28.6393 7.75474 27.8923C14.4773 24.9679 20.4862 24.4542 29.8449 24.9188C32.4675 25.049 34.5 27.2395 34.5 29.8654V252.457C34.5 255.493 37.1902 257.826 40.2007 257.432C93.3947 250.463 126.109 252.983 167.621 271.728C172.666 274.005 170.468 281.134 164.965 280.543C90.6427 272.547 52.8118 276.429 11.0444 284.946C7.93015 285.581 5 283.212 5 280.034Z" stroke="black" stroke-width="9"/>
</svg>