<svg width="63" height="55" viewBox="0 0 63 55" fill="none" xmlns="http://www.w3.org/2000/svg">
<g id="Like">
<g id="Vector 17">
<path d="M34.6303 0.0990819C32.4907 -0.141601 30.8623 1.78819 30.8578 3.94129C30.8353 14.7294 28.2908 20.0963 19.5051 25.8239V51.7821L23.7392 54.4016C24.3715 54.7928 25.1003 55 25.8438 55H50.8037C51.0319 55 51.2616 54.9815 51.4855 54.9375C55.2967 54.189 56.3304 52.3611 56.9679 48.833C57.1478 47.8372 57.6787 46.9483 58.3895 46.2281C59.6667 44.934 60.1856 43.7076 60.1272 42.067C60.064 40.2927 60.7546 38.5988 61.9605 37.2958C63.1957 35.9613 63.2952 34.6097 62.4441 32.7408C61.8598 31.4578 61.7585 29.9933 62.2547 28.6737C65.2136 20.804 58.8842 19.6031 45.5738 19.7335C43.1397 19.7574 41.2328 17.6501 41.4411 15.2247C42.2537 5.76141 41.2265 0.841083 34.6303 0.0990819Z" fill="#28A745"/>
<path d="M19.5051 25.8239C19.5051 24.7576 18.6406 23.8932 17.5743 23.8932H4C1.79086 23.8932 0 25.684 0 27.8932V50.3564C0 52.5655 1.79086 54.3564 4 54.3564H16.9307C18.3525 54.3564 19.5051 53.2038 19.5051 51.7821V25.8239Z" fill="#28A745"/>
</g>
</g>
</svg>
