<svg width="351" height="351" viewBox="0 0 351 351" fill="none" xmlns="http://www.w3.org/2000/svg">
<path d="M0 124.592C0 193.402 56.4277 249.183 126.035 249.183C149.553 249.183 171.566 242.815 190.407 231.729C206.885 222.033 220.936 208.728 231.445 192.916C244.484 173.297 252.069 149.82 252.069 124.592C252.069 55.7816 195.642 0 126.035 0C56.4277 0 0 55.7816 0 124.592Z" fill="#294F78"/>
<path d="M350.092 318.324C350.831 314.454 349.377 310.53 346.588 307.748L231.445 192.916C220.936 208.728 206.885 222.033 190.407 231.729L308.104 346.186C311.199 349.196 315.609 350.536 319.78 349.421C335.955 345.096 346.384 337.728 350.092 318.324Z" fill="#294F78"/>
<path d="M187.834 227.441C169.751 238.073 148.624 244.183 126.035 244.183C59.1347 244.183 5 190.586 5 124.592C5 58.5971 59.1347 5 126.035 5C192.935 5 247.069 58.5971 247.069 124.592C247.069 148.802 239.794 171.322 227.281 190.148C217.193 205.327 203.699 218.106 187.872 227.42C187.859 227.427 187.847 227.434 187.834 227.441ZM198.472 232.597C211.524 224.019 222.933 213.187 232.131 200.661L343.057 311.289C344.84 313.067 345.567 315.365 345.181 317.386C343.474 326.316 340.335 331.968 336.179 335.892C331.947 339.887 326.205 342.527 318.489 344.591C316.178 345.209 313.546 344.504 311.59 342.602L198.472 232.597Z" stroke="black" stroke-width="10"/>
<path d="M216.55 124.925C216.55 174.013 176.192 213.956 126.222 213.956C76.2527 213.956 35.8945 174.013 35.8945 124.925C35.8945 75.8368 76.2527 35.894 126.222 35.894C176.192 35.894 216.55 75.8368 216.55 124.925Z" fill="#87CEEB" stroke="black" stroke-width="13"/>
</svg>
