<svg width="1920" height="1080" viewBox="0 0 1920 1080" fill="none" xmlns="http://www.w3.org/2000/svg">
<path d="M0 969L1086.5 637.5L971.5 618.79L0 900V969Z" fill="#87CEEB"/>
<path d="M1086.5 637.5V0H971.5V155V210.5V309.395V618.79L1086.5 637.5Z" fill="#007BFF"/>
<path d="M0 1080L249 1005.05L339 977.958L433.5 949.513L1191 721.5V520V420V358.5V0H1086.5V637.5L0 969V1080Z" fill="#294F78"/>
<path d="M971.5 309.395V210.5L339 93.5V0H249V155L520 212.911L623 235.5L709.5 253.407L971.5 309.395Z" fill="#007BFF"/>
<path d="M971.5 210.5V155L433.5 65L339 93.5L971.5 210.5Z" fill="#87CEEB"/>
<path d="M433.5 65V0H339V93.5L433.5 65Z" fill="#294F78"/>
<path d="M339 977.958V1080H433.5V949.513L339 977.958Z" fill="#294F78"/>
<path d="M339 1080V977.958L249 1005.05V1080H339Z" fill="#007BFF"/>
<path d="M1086.5 1080H1191V962.5L1920 734.487V637.5L1726.48 696.357L1626 726.917L1086.5 891V1080Z" fill="#294F78"/>
<path d="M971.5 1080H1086.5V891L971.5 865.5V1080Z" fill="#007BFF"/>
<path d="M1191 420L1726.48 280.3L1626 246L1191 358.5V420Z" fill="#87CEEB"/>
<path d="M1513.5 436.595L1626 407.5V661.249L1726.48 629.892V280.3L1191 420V520L1513.5 436.595Z" fill="#294F78"/>
<path d="M1626 407.5L1513.5 436.595V696.357L1626 661.249V407.5Z" fill="#007BFF"/>
<path d="M1626 661.249L1513.5 696.357L1626 726.917V661.249Z" fill="#007BFF"/>
<path fill-rule="evenodd" clip-rule="evenodd" d="M1086.5 891L1626 726.917L1513.5 696.357L971.5 865.5L1086.5 891ZM1726.48 629.892V696.357L1920 637.5V569.5L1726.48 629.892Z" fill="#87CEEB"/>
<path d="M1626 726.917L1726.48 696.357V629.892L1626 661.249V726.917Z" fill="#294F78"/>
<path d="M623 235.5V358.5L0 520V604L709.5 420.5V253.407L623 235.5Z" fill="#294F78"/>
<path d="M623 358.5V235.5L520 212.911V344.5L623 358.5Z" fill="#007BFF"/>
<path d="M0 520L623 358.5L520 344.5L0 470.5V520Z" fill="#87CEEB"/>
<rect y="-2" width="1920" height="1083" stroke="black"/>
<rect y="-2" width="1920" height="1083" fill="white" fill-opacity="0.35"/>
<rect y="-2" width="1920" height="1083" stroke="black"/>
</svg>
