<svg width="403" height="353" viewBox="0 0 403 353" fill="none" xmlns="http://www.w3.org/2000/svg">
<path d="M162.896 264.733L160.872 258.555L162.896 264.733C164.692 264.144 167.198 264.062 175.346 264.062H187.938C200.239 264.062 203.658 264.303 206.692 266.321C207.623 266.94 208.967 268.287 210.221 270.15C211.476 272.013 212.22 273.764 212.443 274.86C213.197 278.549 212.49 280.754 209.079 289.165C197.33 318.133 174.217 332.634 150.286 341.07C143.02 343.632 128.33 346.178 110.966 346.472C93.6794 346.764 74.4725 344.807 58.0808 338.876C25.8305 327.208 3.8969 300.022 6.74963 260.18C8.58876 241.63 11.4796 228.837 18.5677 217.966C25.6661 207.08 37.4944 197.347 58.8703 186.221L59.1437 186.079L59.4023 185.911C69.3436 179.474 76.7602 173.458 82.0797 165.806C87.4469 158.085 90.2983 149.256 92.1487 137.857L92.2194 137.422L92.2306 136.981L92.345 132.488C92.4761 127.337 92.5695 123.831 92.8425 121.113C93.1085 118.465 93.5054 117.081 93.9829 116.102C95.3548 113.29 97.6607 111.042 100.506 109.743C101.497 109.29 102.89 108.928 105.545 108.73C108.269 108.526 111.776 108.522 116.928 108.522C122.2 108.522 125.792 108.526 128.578 108.737C131.296 108.942 132.715 109.317 133.715 109.782C136.6 111.125 138.917 113.442 140.259 116.326C140.725 117.327 141.099 118.746 141.305 121.464C141.515 124.25 141.52 127.842 141.52 133.113L141.52 156.213C141.52 157.413 141.517 157.76 141.494 158.13C141.474 158.453 141.428 158.906 141.382 159.227C141.328 159.601 141.273 159.876 141.068 160.869C138.812 171.764 136.028 179.354 131.137 185.99C126.204 192.685 118.739 198.933 106.211 206.397L105.937 206.555C93.0755 213.962 81.9601 220.364 74.5841 228.156C66.5678 236.625 63.0088 246.6 64.3566 260.264C65.5068 271.926 69.5015 283.125 77.0384 291.512C84.7118 300.051 95.6434 305.195 109.496 305.195C118.812 305.195 126.699 303.258 133.412 299.117C140.092 294.997 145.082 289.019 149.164 281.82C151.781 277.205 153.644 273.922 155.145 271.513C156.694 269.025 157.538 268.008 158.009 267.579C159.793 265.955 160.603 265.483 162.896 264.733ZM83.0815 38.3321C83.0815 21.0537 97.9023 6.5 116.876 6.5C135.85 6.5 150.671 21.0537 150.671 38.3321C150.671 55.6104 135.85 70.1639 116.876 70.1639C97.9022 70.1639 83.0815 55.6104 83.0815 38.3321Z" fill="#87CEEB" stroke="black" stroke-width="13"/>
<path d="M317.153 220.678C316.896 230.784 316.767 235.837 314.859 239.748C312.826 243.914 309.41 247.244 305.194 249.17C301.236 250.978 296.181 250.978 286.072 250.978C275.727 250.978 270.555 250.978 266.542 249.111C262.269 247.122 258.836 243.689 256.848 239.416C254.98 235.404 254.98 230.231 254.98 219.887V196.787C254.98 195.651 254.98 195.084 255.018 194.472C255.049 193.972 255.113 193.343 255.184 192.847C255.272 192.241 255.37 191.765 255.567 190.813C260.264 168.13 267.725 156.345 293.504 140.994C320.103 125.675 334.525 117.204 332.175 93.374C330.069 72.0218 317.71 54.3048 293.504 54.3048C276.725 54.3048 266.944 61.2387 259.49 74.3864C254.314 83.5147 251.727 88.0789 249.366 90.2275C246.904 92.469 245.292 93.4082 242.128 94.4446C239.094 95.438 235.281 95.438 227.654 95.438H215.062C203.514 95.438 197.741 95.438 192.709 92.092C188.984 89.615 185.083 83.8243 184.188 79.4414C182.978 73.521 184.618 69.478 187.898 61.392C200.61 30.0479 225.659 14.5757 250.552 5.79996C266.879 0.0441968 312.357 -4.57065 347.131 8.01134C381.832 20.567 405.85 50.2683 402.727 93.374C399.001 131.059 390.719 149.858 347.131 172.545C327.752 185.094 320.802 194.409 317.267 216.184L317.153 220.678Z" fill="#294F78"/>
<path d="M326.418 314.668C326.418 335.838 308.378 353 286.124 353C263.87 353 245.829 335.838 245.829 314.668C245.829 293.498 263.87 276.336 286.124 276.336C308.378 276.336 326.418 293.498 326.418 314.668Z" fill="#294F78"/>
<path d="M302.494 243.257L305.194 249.17L302.494 243.257C301.503 243.71 300.11 244.072 297.455 244.27C294.731 244.474 291.224 244.478 286.072 244.478C280.8 244.478 277.208 244.474 274.422 244.263C271.704 244.058 270.285 243.683 269.285 243.218C266.4 241.875 264.083 239.558 262.741 236.674C262.275 235.673 261.901 234.254 261.695 231.536C261.485 228.75 261.48 225.158 261.48 219.887V196.787C261.48 195.587 261.483 195.24 261.506 194.87C261.526 194.547 261.572 194.094 261.618 193.773C261.672 193.399 261.727 193.124 261.932 192.132C264.188 181.236 266.972 173.646 271.863 167.01C276.796 160.315 284.261 154.067 296.789 146.603L297.063 146.445C309.925 139.038 321.04 132.636 328.416 124.844C336.432 116.375 339.991 106.4 338.643 92.7359C337.493 81.074 333.498 69.8748 325.962 61.4877C318.288 52.9486 307.357 47.8048 293.504 47.8048C284.188 47.8048 276.301 49.7417 269.588 53.8831C262.908 58.0033 257.918 63.9807 253.836 71.1804C251.219 75.7951 249.356 79.0783 247.855 81.4875C246.306 83.9752 245.462 84.9919 244.991 85.4209C243.207 87.0446 242.397 87.5167 240.104 88.2675C238.308 88.8559 235.802 88.938 227.654 88.938H215.062C202.761 88.938 199.342 88.6969 196.308 86.6795C195.377 86.0603 194.033 84.7131 192.779 82.8502C191.524 80.9874 190.78 79.2358 190.557 78.1403C189.803 74.4513 190.51 72.2462 193.921 63.835C205.67 34.8668 228.783 20.3664 252.714 11.9302C259.98 9.36846 274.67 6.82185 292.034 6.52806C309.321 6.23558 328.527 8.19269 344.919 14.1236C377.169 25.7924 399.103 52.9778 396.25 92.8197C394.411 111.37 391.52 124.163 384.432 135.034C377.334 145.92 365.506 155.653 344.13 166.779L343.856 166.921L343.598 167.089C333.656 173.526 326.24 179.542 320.92 187.195C315.553 194.915 312.702 203.744 310.851 215.143L310.781 215.578L310.769 216.019L310.655 220.512C310.524 225.663 310.43 229.169 310.158 231.887C309.892 234.535 309.495 235.919 309.017 236.898C307.645 239.71 305.339 241.958 302.494 243.257ZM319.918 314.668C319.918 331.946 305.098 346.5 286.124 346.5C267.15 346.5 252.329 331.946 252.329 314.668C252.329 297.39 267.15 282.836 286.124 282.836C305.098 282.836 319.918 297.39 319.918 314.668Z" stroke="black" stroke-width="13"/>
</svg>
