<svg width="382" height="519" viewBox="0 0 382 519" fill="none" xmlns="http://www.w3.org/2000/svg">
<path d="M162.36 335.958L162.119 336.326L161.93 336.724L152.267 357.024C149.869 362.062 148.232 365.489 146.753 368.043C145.312 370.53 144.291 371.697 143.357 372.426C141.147 374.152 138.454 375.146 135.653 375.272C134.469 375.325 132.935 375.102 130.223 374.149C127.439 373.169 123.967 371.629 118.87 369.36L90.2858 356.633C85.0715 354.312 81.52 352.725 78.8711 351.276C76.2891 349.864 75.0786 348.849 74.3228 347.915L69.2713 352.006L74.3228 347.915C72.5286 345.7 71.4819 342.973 71.3327 340.126C71.2699 338.927 71.4898 337.362 72.4638 334.585C73.4631 331.736 75.0406 328.18 77.3622 322.966L99.0091 274.346C99.496 273.253 99.6403 272.935 99.805 272.617C99.9561 272.325 100.159 271.969 100.333 271.69C100.524 271.383 100.7 271.131 101.326 270.247C111.709 255.591 120.809 245.89 132.562 239.06C144.365 232.201 159.425 227.903 182.286 225.161L182.334 225.156C205.444 222.729 224.658 220.711 239.44 214.547C255.02 208.05 265.591 197.047 271.966 177.86C277.494 161.221 278.776 143.735 273.73 128.094C268.621 112.256 257.204 98.9086 238.586 90.6195C223.771 84.0233 210.381 82.3931 197.453 85.5416C184.708 88.6456 173.156 96.2197 161.615 106.602C158.111 109.754 155.675 111.942 153.715 113.522C151.755 115.103 150.666 115.742 149.926 116.044C147.769 116.924 146.161 117.178 143.839 117.007C141.773 116.855 139.34 115.877 131.467 112.372L85.2418 91.7909C79.6839 89.3164 75.9677 87.653 73.2085 86.0656C70.5821 84.5546 69.311 83.3765 68.4552 82.1271C66.8381 79.766 65.8312 75.5222 66.2153 72.6863C66.6763 69.2831 68.3869 66.8753 75.2012 58.5516C113.179 12.1609 161.449 4.31501 205.475 7.81091C217.806 8.79012 240.438 14.5399 265.227 25.0767C289.944 35.5832 316.13 50.5663 335.863 69.5771C374.888 107.175 389.151 160.912 359.289 216.83C344.989 241.957 332.55 258.807 315.019 270.172C297.473 281.546 274.037 287.921 236.755 290.234L236.447 290.253L236.142 290.301C218.287 293.124 204.619 296.87 192.923 303.969C181.156 311.111 171.957 321.292 162.36 335.958ZM112.945 481.364C101.242 507.649 69.1089 519.447 40.8335 506.858C12.558 494.269 -0.175294 462.495 11.5278 436.21C23.2308 409.925 55.3633 398.127 83.6388 410.716C111.914 423.305 124.648 455.078 112.945 481.364Z" stroke="black" stroke-width="13"/>
</svg>
