<svg width="445" height="294" viewBox="0 0 445 294" fill="none" xmlns="http://www.w3.org/2000/svg">
<path d="M221.5 74.3093C172.007 15.5764 124.323 -0.122217 58.7064 9.73892C56.2859 10.1027 54.5 12.1977 54.5 14.6454V232.739C54.5 235.627 56.9492 237.913 59.8319 237.736C121.854 233.928 157.675 235.741 212.396 274.379C213.417 275.1 214.702 275.485 215.912 275.171C218.597 274.474 219.977 272.966 221.5 269.527M221.5 74.3093C275.248 16.6696 311.063 1.16084 383.615 9.8531C386.109 10.1519 388 12.2808 388 14.7924V232.448C388 235.441 385.378 237.76 382.401 237.443C318.778 230.673 284.81 240.32 231.07 274.516C230.066 275.154 228.841 275.472 227.691 275.168C224.873 274.426 223.383 272.877 221.5 269.527M221.5 74.3093V269.527M438 276.788V34.2858C438 32.4847 437.035 30.807 435.436 29.9768C427.342 25.7727 421.752 24.9425 413.778 26.51C411.54 26.95 410 28.9715 410 31.2526V253.968C410 257.114 407.116 259.475 404.022 258.901C345.485 248.051 311.874 251.112 272.634 271.806C267.732 274.391 270.454 281.375 275.918 280.455C322.944 272.537 362.193 272.552 432.302 281.749C435.303 282.143 438 279.815 438 276.788ZM7 281.832V34.4231C7 32.5494 8.03874 30.8076 9.75735 30.0612C16.4787 27.1421 22.4872 26.6293 31.8444 27.0931C34.4672 27.2232 36.5 29.4138 36.5 32.0398V254.295C36.5 257.331 39.1896 259.664 42.1998 259.27C95.3792 252.313 128.091 254.826 169.586 273.529C174.633 275.804 172.437 282.935 166.933 282.344C92.6309 274.364 54.805 278.241 13.0429 286.745C9.9291 287.379 7 285.01 7 281.832Z" stroke="black" stroke-width="13"/>
</svg>
