<svg width="406" height="406" viewBox="0 0 406 406" fill="none" xmlns="http://www.w3.org/2000/svg">
<path d="M263.547 220.377L261.279 223.791L264.181 226.685L398.057 360.201C399.828 361.967 400.576 364.281 400.205 366.363C398.243 377.383 394.454 384.347 389.327 389.157C384.114 394.049 377.031 397.179 367.592 399.607C365.232 400.214 362.591 399.495 360.644 397.602L223.729 264.455L220.995 261.796L217.708 263.73C196.664 276.113 172.074 283.229 145.784 283.229C67.9766 283.229 5 220.891 5 144.115C5 67.3378 67.9766 5 145.784 5C223.591 5 286.568 67.3378 286.568 144.115C286.568 172.278 278.103 198.476 263.547 220.377Z" stroke="black" stroke-width="10"/>
<path d="M234.906 144.889C234.906 193.863 194.724 233.691 145 233.691C95.276 233.691 55.0947 193.863 55.0947 144.889C55.0947 95.9159 95.276 56.0878 145 56.0878C194.724 56.0878 234.906 95.9159 234.906 144.889Z" stroke="black" stroke-width="13"/>
</svg>
