<svg xmlns="http://www.w3.org/2000/svg" width="153" height="126" viewBox="0 0 153 126" fill="none">
<path d="M72.4352 5.38584C74.0623 1.95993 78.9377 1.95993 80.5648 5.38583L96.6118 39.1728C98.1102 42.3276 101.219 44.4059 104.707 44.5847L145.573 46.6792C149.872 46.8996 151.438 52.4509 147.887 54.885L118.441 75.0707C115.004 77.4264 113.504 81.746 114.74 85.7246L124.63 117.564C125.821 121.397 121.778 124.753 118.23 122.877L80.9395 103.166C78.1619 101.698 74.8381 101.698 72.0605 103.166L34.7699 122.877C31.2216 124.753 27.179 121.397 28.3696 117.564L38.2602 85.7246C39.4961 81.746 37.9956 77.4264 34.5593 75.0707L5.11317 54.885C1.56249 52.4509 3.12797 46.8996 7.42721 46.6792L48.2932 44.5847C51.7812 44.4059 54.8898 42.3276 56.3882 39.1728L72.4352 5.38584Z" fill="#FAFF00" stroke="black" stroke-width="5"/>
</svg>