<svg width="70" height="70" viewBox="0 0 70 70" fill="none" xmlns="http://www.w3.org/2000/svg">
<path fill-rule="evenodd" clip-rule="evenodd" d="M70 35C70 54.33 54.33 70 35 70C15.67 70 0 54.33 0 35C0 15.67 15.67 0 35 0C54.33 0 70 15.67 70 35ZM19.3472 24.5V15.9444H31.2083C31.6506 13.3231 32.9583 11.9583 35 11.9583C37.0417 11.9583 38.4434 13.2282 38.9861 15.9444H50.9444V24.5H48.7083C48.7083 24.5 49.0628 54.5976 48.7083 55.9028C48.3539 57.208 47.8633 57.6936 46.4722 58.1389C45.0812 58.5842 23.7222 58.1389 23.7222 58.1389C22.242 57.8826 21.6681 57.4936 21.5833 55.9028V24.5H19.3472Z" fill="#FF0000"/>
<path d="M25.9583 52.3056C26.0118 53.2294 26.5957 53.5216 27.3194 53.5694C28.1005 53.6211 28.7923 53.1889 28.875 52.3056V30.3333C28.8968 30.0792 28.1024 29.1477 27.3194 29.1667C26.5195 29.186 25.8969 30.0529 25.9583 30.3333V52.3056Z" fill="#FF0000"/>
<path d="M33.6389 30.3333C33.783 29.4065 34.3679 29.1667 35.0972 29.1667C35.8266 29.1667 36.4448 29.4446 36.5556 30.3333V52.3056C36.4697 53.2859 36.1638 53.5758 35.0972 53.5694C33.9706 53.6408 33.6833 53.3322 33.6389 52.3056V30.3333Z" fill="#FF0000"/>
<path d="M41.3194 30.3333C41.3614 29.4909 41.5664 29.1622 42.6806 29.1667C43.8016 29.1401 44.151 29.3727 44.2361 30.3333V52.3056C44.1287 53.3491 43.7539 53.5879 42.6806 53.5694C41.5795 53.649 41.3051 53.3493 41.3194 52.3056V30.3333Z" fill="#FF0000"/>
</svg>
