<svg width="1920" height="1080" viewBox="0 0 1920 1080" fill="none" xmlns="http://www.w3.org/2000/svg">
<path d="M0 185L294.75 42.998V0H205.5L0 105.649V185Z" fill="#87CEEB"/>
<path d="M0 185V292.5L294.75 139.752V42.998L0 185Z" fill="#294F78"/>
<path d="M470 46.75L556 0H470V46.75Z" fill="#294F78"/>
<path d="M384 0H294.75V42.998L384 0Z" fill="#007BFF"/>
<path d="M384 93.5V0L294.75 42.998V139.752L384 93.5Z" fill="#007BFF"/>
<path d="M384 0V93.5L470 46.75V0H384Z" fill="#294F78"/>
<path d="M384 979.5L470 935.576V756V643V559.402V46.75L384 93.5V351V979.5Z" fill="#294F78"/>
<path d="M294.75 1029.75L384 979.5V351V93.5L294.75 139.752V1029.75Z" fill="#007BFF"/>
<path d="M1920 387V292.5L880 825.703L753.494 890.562L470 1035.91V1080H556L929 890.562L1028 840.282L1148.5 779.083L1476.5 612.5L1570 564.823L1685 506.395L1920 387Z" fill="#294F78"/>
<path d="M205.5 1080H294.75V1029.75L205.5 1080Z" fill="#87CEEB"/>
<path d="M384 979.5V1080L470 1035.91V935.576L384 979.5Z" fill="#294F78"/>
<path d="M384 1080H470V1035.91L384 1080Z" fill="#294F78"/>
<path d="M384 1080V979.5L294.75 1029.75V1080H384Z" fill="#007BFF"/>
<path d="M1570 0V64.5V186.88V373.76L1685 315.024V0H1570Z" fill="#294F78"/>
<path d="M1570 564.823V1080H1685V506.395L1570 564.823Z" fill="#294F78"/>
<path d="M1570 1080V564.823L1476.5 612.5V1080H1570Z" fill="#007BFF"/>
<path d="M1028 424L1476.5 227.785V105.649L1148.5 250V161.5V0H1028V424Z" fill="#294F78"/>
<path d="M1028 424V0H929V373.76L1028 424Z" fill="#007BFF"/>
<path d="M1148.5 161.5V250L1476.5 105.649V32L1148.5 161.5Z" fill="#87CEEB"/>
<path fill-rule="evenodd" clip-rule="evenodd" d="M1570 373.76V186.88L1476.5 227.785V424L1570 373.76Z" fill="#007BFF"/>
<path d="M1570 186.88V64.5L1476.5 105.649V227.785L1570 186.88Z" fill="#294F78"/>
<path d="M1476.5 105.649L1570 64.5L1476.5 32V105.649Z" fill="#87CEEB"/>
<path d="M1570 0H1476.5V32L1570 64.5V0Z" fill="#007BFF"/>
<path d="M1028 840.282V1080H1148.5V779.083L1028 840.282Z" fill="#294F78"/>
<path d="M1028 1080V840.282L929 890.562V1080H1028Z" fill="#007BFF"/>
<path d="M470 559.402V643L880 444.5L794.5 399.5L470 559.402Z" fill="#87CEEB"/>
<path d="M753.494 791.484L880 727.185V444.5L470 643V756L668.5 655.523L753.494 612.5V791.484Z" fill="#294F78"/>
<path d="M753.494 890.562L880 825.703V727.185L753.494 791.484V890.562Z" fill="#294F78"/>
<path d="M753.494 791.484V612.5L668.5 655.523V834.684L753.494 791.484Z" fill="#007BFF"/>
<path fill-rule="evenodd" clip-rule="evenodd" d="M470 1035.91L753.494 890.562L668.5 834.684L470 935.576V1035.91ZM1920 292.5L880 825.703V727.185L1476.5 424L1570 373.76L1685 315.024L1920 195V292.5Z" fill="#87CEEB"/>
<path d="M753.494 890.562V791.484L668.5 834.684L753.494 890.562Z" fill="#007BFF"/>
</svg>
